<svg width="35" height="42" viewBox="0 0 35 42" fill="none" xmlns="http://www.w3.org/2000/svg">
<g clip-path="url(#clip0)">
<path d="M25.967 23.2798C24.0685 19.5533 20.2716 17.022 15.9826 17.022C11.6584 17.022 7.86149 19.5533 5.96305 23.2798C5.89274 23.4205 5.85758 23.5963 5.85758 23.772C5.85758 23.983 5.89274 24.1588 5.96305 24.2994C7.86149 28.0259 11.6584 30.522 15.9826 30.522C20.2716 30.522 24.0685 28.0259 25.967 24.2994C26.0373 24.1588 26.0724 23.983 26.0724 23.8072C26.0724 23.5963 26.0373 23.4205 25.967 23.2798ZM15.9826 28.8345C13.1701 28.8345 10.9201 26.5845 10.9201 23.772C10.9201 20.9947 13.1701 18.7095 15.9826 18.7095C18.7599 18.7095 21.0451 20.9947 21.0451 23.772V23.8072C21.0451 26.5845 18.7599 28.8697 15.9826 28.8697V28.8345ZM15.9826 20.397C15.6662 20.4322 15.3498 20.4673 15.0685 20.5377C15.2795 20.8189 15.3849 21.1705 15.3849 21.5572C15.3849 22.4713 14.6466 23.2095 13.7326 23.2095C13.3459 23.2095 12.9943 23.1041 12.7131 22.8931C12.6427 23.1744 12.6076 23.4908 12.6076 23.772C12.6076 25.6353 14.1193 27.147 15.9826 27.147C17.8459 27.147 19.3576 25.6353 19.3576 23.772C19.3576 21.9088 17.8459 20.4322 15.9826 20.4322V20.397Z" fill="#323232"/>
</g>
<defs>
<clipPath id="clip0">
<rect width="34.04" height="41.1132" fill="white" transform="translate(0.455566 0.126648)"/>
</clipPath>
</defs>
</svg>
